<?xml version="1.0" encoding="UTF-8"?>
<svg width="36px" height="60px" viewBox="0 0 36 60" version="1.1" xmlns="http://www.w3.org/2000/svg" xmlns:xlink="http://www.w3.org/1999/xlink">
    <title>74CE1C67-5AFF-4B47-BCB9-6DEA4BF91538</title>
    <g id="Homepage---Final" stroke="none" stroke-width="1" fill="none" fill-rule="evenodd">
        <g id="Home---Large-Desktop-Copy" transform="translate(-802.000000, -766.000000)" fill="#000000">
            <g id="Group-15" transform="translate(320.000000, 705.000000)">
                <g id="Component-/-Integration" transform="translate(442.000000, 0.000000)">
                    <g id="billing-mobile" transform="translate(40.000000, 61.000000)">
                        <path d="M18,44.0795455 C15.606383,44.0795455 13.8111702,45.9886364 13.8111702,48.2556818 C13.8111702,50.6420455 15.7260638,52.4318182 18,52.4318182 C20.2739362,52.4318182 22.1888298,50.5227273 22.1888298,48.2556818 C22.1888298,45.9886364 20.393617,44.0795455 18,44.0795455 Z" id="Fill-1"></path>
                        <path d="M21.5904255,9.54545455 L14.4095745,9.54545455 C13.212766,9.54545455 12.2553191,10.5 12.2553191,11.6931818 C12.2553191,12.8863636 13.212766,13.8409091 14.4095745,13.8409091 L21.5904255,13.8409091 C22.787234,13.8409091 23.7446809,12.8863636 23.7446809,11.6931818 C23.7446809,10.5 22.787234,9.54545455 21.5904255,9.54545455 Z" id="Fill-3"></path>
                        <path d="M29.7804255,0 L6.21957447,0 C2.78808511,0 0,2.64757969 0,5.90613932 L0,54.0938607 C0,57.3524203 2.78808511,60 6.21957447,60 L29.7804255,60 C33.2119149,60 36,57.3524203 36,54.0938607 L36,5.80430933 C36,2.5457497 33.2119149,0 29.7804255,0 Z M32.2468085,53.9920307 C32.2468085,55.2139906 31.1744681,56.3341204 29.7804255,56.3341204 L6.21957447,56.3341204 C4.93276596,56.3341204 3.75319149,55.3158205 3.75319149,53.9920307 L3.75319149,5.80430933 C3.75319149,4.58234947 4.82553191,3.4622196 6.21957447,3.4622196 L29.7804255,3.4622196 C31.067234,3.4622196 32.2468085,4.48051948 32.2468085,5.80430933 L32.2468085,53.9920307 Z" id="Fill-5"></path>
                    </g>
                </g>
            </g>
        </g>
    </g>
</svg>