<?xml version="1.0" encoding="UTF-8"?>
<svg width="120px" height="44px" viewBox="0 0 120 44" version="1.1" xmlns="http://www.w3.org/2000/svg" xmlns:xlink="http://www.w3.org/1999/xlink">
    <!-- Generator: Sketch 48.2 (47327) - http://www.bohemiancoding.com/sketch -->
    <title>Optix Logo</title>
    <desc>Created with Sketch.</desc>
    <defs>
        <path d="M0,10.2397286 L0,10.0235571 C0,4.32231429 4.03517869,0.0932285714 9.73913943,0.0932285714 C15.470016,0.0932285714 19.4220669,4.21088571 19.4220669,9.94388571 L19.4220669,10.1600571 C19.4220669,15.8635286 15.5752991,20.1449857 9.73913943,20.1449857 C3.84676782,20.1451714 0,15.8635286 0,10.2397286 Z M15.7098782,10.1873571 L15.7098782,9.96895714 C15.7098782,5.95808571 13.5049766,2.98461429 9.73913943,2.98461429 C5.97092192,2.98461429 3.73910446,5.79205714 3.73910446,9.99625714 L3.73910446,10.2146571 C3.73910446,14.4712286 6.2961092,17.2261143 9.7905908,17.2261143 C13.4220319,17.2263 15.7098782,14.4166286 15.7098782,10.1873571 Z" id="path-1"></path>
        <path d="M0.119381818,0.401142857 L3.37400117,0.401142857 L3.37400117,2.69434286 C4.15456051,1.32934286 5.90409007,0.103071429 7.97441249,0.103071429 C11.4981902,0.103071429 14.21669,2.74894286 14.21669,7.36041429 L14.21669,7.57881429 C14.21669,12.1652143 11.6058536,14.9451714 7.97441249,14.9451714 C5.74259504,14.9451714 4.12764467,13.8258714 3.37400117,12.4358 L3.37400117,19.5588714 L0.119381818,19.5588714 L0.119381818,0.401142857 Z M10.88114,7.63118571 L10.88114,7.41278571 C10.88114,4.25062857 9.26618968,2.69452857 7.14203558,2.69452857 C4.88110508,2.69452857 3.26615471,4.25062857 3.26615471,7.41278571 L3.26615471,7.63118571 C3.26615471,10.8275143 4.80035756,12.3290143 7.16895142,12.3290143 C9.56226392,12.3290143 10.88114,10.6887857 10.88114,7.63118571 Z" id="path-3"></path>
        <path d="M1.93446152,13.4748714 L1.93446152,5.67171429 L0.0503527607,5.67171429 L0.0503527607,3.18741429 L1.93446152,3.18741429 L1.93446152,0.0501428571 L5.18908087,0.0501428571 L5.18908087,3.18741429 L8.28220519,3.18741429 L8.28220519,5.67171429 L5.18908087,5.67171429 L5.18908087,13.1769857 C5.18908087,14.4305571 5.78122934,15.0038571 6.80403123,15.0038571 C7.45001138,15.0038571 7.93449649,14.9241857 8.38986854,14.7330857 L8.38986854,17.3494286 C7.8784676,17.5405286 7.18085298,17.7043286 6.18496693,17.7043286 C3.38553653,17.7041429 1.93446152,16.1753429 1.93446152,13.4748714" id="path-5"></path>
        <path d="M0.131649582,1.92771429 C0.131649582,0.840357143 0.992956442,0.0235857143 2.07178723,0.0235857143 C3.14622359,0.0235857143 4.00753045,0.840357143 4.00753045,1.92771429 C4.00753045,2.99464286 3.14622359,3.81364286 2.07178723,3.81364286 C0.992956442,3.81382857 0.131649582,2.99482857 0.131649582,1.92771429 Z M0.483935806,20.4326571 L3.73855516,20.4326571 L3.73855516,6.15921429 L0.483935806,6.15921429 L0.483935806,20.4326571 Z" id="path-7"></path>
        <rect id="path-9" x="0.00878884551" y="0.0557142857" width="118.878291" height="45.5"></rect>
        <polygon id="path-11" points="5.00543062 6.98861429 0.431935137 0.0293428571 4.20015265 0.0293428571 7.12958472 4.64304286 10.0364954 0.0293428571 13.4526098 0.0293428571 8.90603012 6.74514286 13.9347146 14.3027857 10.1441587 14.3027857 6.86262354 9.14308571 3.49814361 14.3027857 0.108945064 14.3027857"></polygon>
        <rect id="path-13" x="0.00878884551" y="0.0557142857" width="118.878291" height="45.5"></rect>
        <path d="M21.9562587,0.0540833333 C9.83096319,0.0540833333 0.00789945467,9.8593 0.00789945467,21.95325 C0.00789945467,34.0516 9.83096319,43.8546167 21.9562587,43.8546167 C34.070348,43.8546167 43.8956162,34.0516 43.8956162,21.95325 C43.8956162,9.85948333 34.070348,0.0540833333 21.9562587,0.0540833333 M17.9617065,13.8570667 L17.9617065,13.8502833 L17.9707082,13.8502833 C19.0823269,12.7409333 20.6172093,12.0514167 22.3163269,12.0514167 C24.4543234,12.0514167 26.3356796,13.1428 27.436092,14.7957333 L23.1804905,19.04485 L23.1758978,19.04705 L18.9158872,23.30735 C17.2595736,22.2024 16.1681629,20.3226833 16.1681629,18.18685 C16.1681629,16.5003667 16.8500879,14.9596333 17.9617065,13.8570667 M25.786392,30.3235167 L25.7841875,30.3235167 C24.6747733,31.43305 23.1376864,32.1179833 21.4409571,32.1179833 C19.300756,32.1179833 17.4149908,31.0288 16.3167829,29.3802667 L20.574589,25.1243667 L20.5813862,25.1199667 L24.8413967,20.86865 C26.4977103,21.9668167 27.589121,23.8489167 27.5937137,25.98475 C27.589121,27.67105 26.9026033,29.2072 25.786392,30.3235167" id="path-15"></path>
        <rect id="path-17" x="0.00881799591" y="0.055" width="119.27258" height="44.9166667"></rect>
    </defs>
    <g id="-Customer-Case-Study---Large-Desktop-6/8" stroke="none" stroke-width="1" fill="none" fill-rule="evenodd" transform="translate(-320.000000, -58.000000)">
        <g id="Nav" transform="translate(320.000000, 0.000000)">
            <g id="Left" transform="translate(0.000000, 58.000000)">
                <g id="Optix-Logo">
                    <g id="Group" transform="translate(54.000000, 12.000000)">
                        <g id="Clipped" transform="translate(0.000000, 0.557143)">
                            <mask id="mask-2" fill="white">
                                <use xlink:href="#path-1"></use>
                            </mask>
                            <g id="SVGID_1_"></g>
                            <rect id="Rectangle-path" fill="#000000" fill-rule="nonzero" mask="url(#mask-2)" x="-11.2149331" y="-11.2817714" width="41.851933" height="42.8019429"></rect>
                        </g>
                        <g id="Clipped" transform="translate(20.873508, 5.757143)">
                            <mask id="mask-4" fill="white">
                                <use xlink:href="#path-3"></use>
                            </mask>
                            <g id="SVGID_3_"></g>
                            <rect id="Rectangle-path" fill="#000000" fill-rule="nonzero" mask="url(#mask-4)" x="-11.0955513" y="-11.2717429" width="36.5269912" height="42.2058"></rect>
                        </g>
                        <g id="Clipped" transform="translate(35.887786, 2.971429)">
                            <mask id="mask-6" fill="white">
                                <use xlink:href="#path-5"></use>
                            </mask>
                            <g id="SVGID_5_"></g>
                            <rect id="Rectangle-path" fill="#000000" fill-rule="nonzero" mask="url(#mask-6)" x="-11.1645803" y="-11.3248571" width="30.7691988" height="40.404"></rect>
                        </g>
                        <g id="Clipped" transform="translate(45.958338, 0.000000)">
                            <mask id="mask-8" fill="white">
                                <use xlink:href="#path-7"></use>
                            </mask>
                            <g id="SVGID_7_"></g>
                            <g mask="url(#mask-8)">
                                <g transform="translate(-99.606916, -12.071429)">
                                    <mask id="mask-10" fill="white">
                                        <use xlink:href="#path-9"></use>
                                    </mask>
                                    <g id="SVGID_9_" stroke="none" fill="none"></g>
                                    <rect id="Rectangle-path" stroke="none" fill="#000000" fill-rule="nonzero" mask="url(#mask-10)" x="88.5236323" y="0.720014286" width="26.305747" height="43.1590714"></rect>
                                </g>
                            </g>
                        </g>
                        <g id="Clipped" transform="translate(51.634467, 6.128571)">
                            <mask id="mask-12" fill="white">
                                <use xlink:href="#path-11"></use>
                            </mask>
                            <g id="SVGID_11_"></g>
                            <g mask="url(#mask-12)">
                                <g transform="translate(-105.283045, -18.200000)">
                                    <mask id="mask-14" fill="white">
                                        <use xlink:href="#path-13"></use>
                                    </mask>
                                    <g id="SVGID_13_" stroke="none" fill="none"></g>
                                    <rect id="Rectangle-path" stroke="none" fill="#000000" fill-rule="nonzero" mask="url(#mask-14)" x="94.1770572" y="6.85434286" width="36.2556356" height="37.0234429"></rect>
                                </g>
                            </g>
                        </g>
                    </g>
                    <g id="Clipped">
                        <mask id="mask-16" fill="white">
                            <use xlink:href="#path-15"></use>
                        </mask>
                        <g id="SVGID_15_"></g>
                        <g mask="url(#mask-16)">
                            <mask id="mask-18" fill="white">
                                <use xlink:href="#path-17"></use>
                            </mask>
                            <g id="SVGID_17_"></g>
                            <rect id="Rectangle-path" fill="#000000" fill-rule="nonzero" mask="url(#mask-18)" x="-11.2442307" y="-11.1750833" width="66.3921609" height="66.2588667"></rect>
                        </g>
                    </g>
                </g>
            </g>
        </g>
    </g>
</svg>