<?xml version="1.0" encoding="UTF-8"?>
<svg width="64px" height="64px" viewBox="0 0 64 64" version="1.1" xmlns="http://www.w3.org/2000/svg" xmlns:xlink="http://www.w3.org/1999/xlink">
    <title>939F7019-F0C7-4F26-A4FB-2B575A045BAC</title>
    <g id="Homepage---Final" stroke="none" stroke-width="1" fill="none" fill-rule="evenodd">
        <g id="Home---Large-Desktop-Copy" transform="translate(-354.000000, -767.000000)">
            <g id="Group-15" transform="translate(320.000000, 705.000000)">
                <g id="signup-smiley" transform="translate(36.000000, 64.000000)">
                    <circle id="Oval" stroke-opacity="0.87" stroke="#000000" stroke-width="3.9" cx="30" cy="30" r="30"></circle>
                    <ellipse id="Oval" fill="#000000" cx="20.7142857" cy="24.2857143" rx="3.57142857" ry="4.28571429"></ellipse>
                    <ellipse id="Oval-Copy" fill="#000000" cx="37.8571429" cy="24.2857143" rx="3.57142857" ry="4.28571429"></ellipse>
                    <path d="M47.1428571,32.8571429 C49.047619,31.9047619 50,32.3809524 50,34.2857143 C48.5714286,45.7142857 37.6360285,51.4285714 28.5714286,51.4285714 C14.2857143,51.4285714 8.57142857,40 8.57142857,34.2857143 C8.57142857,32.3809524 9.52380952,31.9047619 11.4285714,32.8571429 C18.6168155,34.7619048 24.3311012,35.7142857 28.5714286,35.7142857 C36.1904762,35.7142857 42.3809524,34.7619048 47.1428571,32.8571429 Z M47.1428571,35.7142857 C40.4761905,37.6190476 34.2857143,38.5714286 28.5714286,38.5714286 C22.8571429,38.5714286 17.1428571,37.6190476 11.4285714,35.7142857 L12.8571429,40 C16.6666667,40.952381 21.9047619,41.4285714 28.5714286,41.4285714 C35.2380952,41.4285714 40.952381,40.952381 45.7142857,40 L47.1428571,35.7142857 Z" id="Path-3" fill="#000000"></path>
                </g>
            </g>
        </g>
    </g>
</svg>